<?xml version="1.0" standalone="no"?>
<!DOCTYPE svg PUBLIC "-//W3C//DTD SVG 20010904//EN"
 "http://www.w3.org/TR/2001/REC-SVG-20010904/DTD/svg10.dtd">
<svg version="1.0" xmlns="http://www.w3.org/2000/svg"
 width="1254.000000pt" height="1254.000000pt" viewBox="0 0 1254.000000 1254.000000"
 preserveAspectRatio="xMidYMid meet">

<g transform="translate(0.000000,1254.000000) scale(0.100000,-0.100000)"
fill="#ffffff" stroke="none">
<path d="M6480 10175 c7 -8 17 -15 22 -15 6 0 5 7 -2 15 -7 8 -17 15 -22 15
-6 0 -5 -7 2 -15z"/>
<path d="M6090 10053 c-220 -8 -566 -49 -765 -89 -99 -20 -245 -65 -245 -76 0
-5 8 -7 18 -4 23 6 228 51 322 70 139 29 264 47 390 56 69 5 179 14 245 21
248 25 803 -11 1115 -71 52 -10 225 -51 300 -70 48 -12 50 -4 4 15 -175 73
-509 124 -944 145 -204 9 -265 10 -440 3z"/>
<path d="M6015 9794 c-22 -2 -105 -8 -185 -14 -167 -12 -544 -72 -628 -100
l-57 -19 50 5 c28 3 75 12 105 19 218 53 636 96 945 99 428 3 672 -20 1109
-105 55 -10 101 -17 103 -15 19 19 -362 84 -657 112 -146 14 -698 27 -785 18z"/>
<path d="M8020 9647 c0 -3 16 -15 35 -27 71 -44 201 -153 273 -228 52 -54 62
-62 33 -26 -51 64 -165 172 -222 211 -65 44 -119 75 -119 70z"/>
<path d="M5123 9343 c9 -2 23 -2 30 0 6 3 -1 5 -18 5 -16 0 -22 -2 -12 -5z"/>
<path d="M5195 9330 c17 -4 39 -8 50 -8 l20 -1 -20 9 c-11 5 -33 8 -50 8 l-30
0 30 -8z"/>
<path d="M8459 9225 c5 -11 17 -29 26 -40 l16 -20 -10 20 c-5 11 -17 29 -26
40 l-16 20 10 -20z"/>
<path d="M8868 8986 c35 -84 37 -87 40 -52 3 29 -3 44 -25 70 -15 18 -33 41
-40 52 -6 10 5 -21 25 -70z"/>
<path d="M8956 9011 c-4 -5 14 -30 38 -55 67 -70 162 -215 248 -381 82 -158
99 -183 47 -70 -76 169 -200 365 -320 508 -4 5 -10 4 -13 -2z"/>
<path d="M8631 8744 c0 -11 3 -14 6 -6 3 7 2 16 -1 19 -3 4 -6 -2 -5 -13z"/>
<path d="M7192 8494 c-12 -8 -27 -25 -33 -37 l-10 -22 18 22 c10 12 27 29 38
37 27 20 16 20 -13 0z"/>
<path d="M9336 8380 c12 -45 73 -195 73 -183 1 16 -53 165 -68 189 -10 17 -11
16 -5 -6z"/>
<path d="M6033 8300 c0 -47 2 -66 4 -42 2 23 2 61 0 85 -2 23 -4 4 -4 -43z"/>
<path d="M9415 8160 c14 -67 40 -153 42 -140 2 8 -8 49 -22 90 -14 41 -23 64
-20 50z"/>
<path d="M6030 7375 c0 -390 2 -706 5 -703 7 7 6 1400 0 1406 -3 3 -5 -313 -5
-703z"/>
<path d="M9461 7984 c0 -11 3 -14 6 -6 3 7 2 16 -1 19 -3 4 -6 -2 -5 -13z"/>
<path d="M9491 7824 c0 -11 3 -14 6 -6 3 7 2 16 -1 19 -3 4 -6 -2 -5 -13z"/>
<path d="M9501 7764 c0 -11 3 -14 6 -6 3 7 2 16 -1 19 -3 4 -6 -2 -5 -13z"/>
<path d="M9512 7710 c0 -19 2 -27 5 -17 2 9 2 25 0 35 -3 9 -5 1 -5 -18z"/>
<path d="M7111 7684 c0 -11 3 -14 6 -6 3 7 2 16 -1 19 -3 4 -6 -2 -5 -13z"/>
<path d="M8609 7653 c-13 -16 -12 -17 4 -4 9 7 17 15 17 17 0 8 -8 3 -21 -13z"/>
<path d="M8470 7519 c-22 -18 -22 -19 -3 -10 12 6 25 16 28 21 9 15 3 12 -25
-11z"/>
<path d="M9533 7490 c0 -25 2 -35 4 -22 2 12 2 32 0 45 -2 12 -4 2 -4 -23z"/>
<path d="M8419 7473 c-13 -16 -12 -17 4 -4 16 13 21 21 13 21 -2 0 -10 -8 -17
-17z"/>
<path d="M8369 7433 c-13 -16 -12 -17 4 -4 9 7 17 15 17 17 0 8 -8 3 -21 -13z"/>
<path d="M8305 7389 c-59 -45 -67 -57 -13 -20 26 17 50 36 53 41 9 15 3 12
-40 -21z"/>
<path d="M8180 7305 c-30 -19 -50 -35 -45 -35 9 0 105 60 105 66 0 6 -2 5 -60
-31z"/>
<path d="M7895 7149 c-144 -71 -218 -102 -435 -184 -199 -76 -735 -253 -1032
-341 -70 -21 -126 -39 -124 -41 2 -3 53 10 113 28 213 62 247 70 287 63 l39
-6 -28 -22 c-19 -15 -26 -29 -23 -46 5 -38 44 -37 124 6 80 42 104 61 98 78
-3 7 22 20 68 35 118 37 128 43 128 72 0 20 7 29 28 37 55 22 218 80 257 92
22 7 45 16 50 20 6 4 60 26 120 50 116 45 455 205 455 214 0 8 13 13 -125 -55z
m-975 -429 c0 -5 -4 -10 -10 -10 -5 0 -10 5 -10 10 0 6 5 10 10 10 6 0 10 -4
10 -10z"/>
<path d="M7110 7146 l-5 -48 -105 -39 c-182 -68 -290 -112 -286 -116 2 -2 33
1 67 7 93 16 263 80 305 115 33 28 35 33 32 80 l-4 50 -4 -49z"/>
<path d="M2912 6915 c0 -16 2 -22 5 -12 2 9 2 23 0 30 -3 6 -5 -1 -5 -18z"/>
<path d="M7112 6710 c0 -19 2 -27 5 -17 2 9 2 25 0 35 -3 9 -5 1 -5 -18z"/>
<path d="M6195 6555 c-39 -14 -40 -14 -5 -8 41 7 82 22 60 22 -8 0 -33 -7 -55
-14z"/>
<path d="M9451 6544 c0 -11 3 -14 6 -6 3 7 2 16 -1 19 -3 4 -6 -2 -5 -13z"/>
<path d="M7112 6520 c0 -19 2 -27 5 -17 2 9 2 25 0 35 -3 9 -5 1 -5 -18z"/>
<path d="M6045 6511 c-11 -4 -20 -14 -21 -22 -3 -37 -7 -42 -14 -19 -6 18 -8
5 -8 -45 -1 -48 2 -64 8 -50 5 11 10 18 12 15 1 -3 5 -259 8 -570 l5 -565 3
617 2 617 22 15 c24 17 16 20 -17 7z"/>
<path d="M9441 6504 c0 -11 3 -14 6 -6 3 7 2 16 -1 19 -3 4 -6 -2 -5 -13z"/>
<path d="M7109 6183 c0 -234 -4 -285 -25 -391 -4 -21 -2 -38 7 -49 11 -13 15
-121 19 -557 5 -499 6 -472 8 357 1 493 0 897 -3 897 -3 0 -5 -116 -6 -257z"/>
<path d="M5466 6324 c-54 -19 -59 -27 -12 -18 31 5 42 3 51 -10 11 -15 13 -13
17 14 5 34 0 35 -56 14z"/>
<path d="M5335 6275 c-25 -12 -26 -14 -5 -9 28 7 60 23 45 23 -5 0 -23 -6 -40
-14z"/>
<path d="M3160 5995 c0 -5 5 -17 10 -25 5 -8 10 -10 10 -5 0 6 -5 17 -10 25
-5 8 -10 11 -10 5z"/>
<path d="M8809 5133 c-13 -16 -12 -17 4 -4 16 13 21 21 13 21 -2 0 -10 -8 -17
-17z"/>
<path d="M8774 5088 l-19 -23 23 19 c12 11 22 21 22 23 0 8 -8 2 -26 -19z"/>
<path d="M8619 4923 l-34 -38 38 34 c34 33 42 41 34 41 -2 0 -19 -17 -38 -37z"/>
<path d="M8464 4778 l-29 -33 33 29 c17 17 32 31 32 33 0 8 -8 1 -36 -29z"/>
<path d="M5215 4738 c22 -4 283 -6 580 -6 297 1 529 2 515 4 -53 7 -1132 9
-1095 2z"/>
<path d="M8404 4728 l-19 -23 23 19 c12 11 22 21 22 23 0 8 -8 2 -26 -19z"/>
<path d="M8298 4644 c-32 -25 -58 -48 -58 -50 0 -3 27 16 60 42 53 41 67 54
58 54 -2 0 -29 -21 -60 -46z"/>
<path d="M7984 4424 c-18 -14 -18 -15 4 -4 12 6 22 13 22 15 0 8 -5 6 -26 -11z"/>
<path d="M7934 4394 c-18 -14 -18 -15 4 -4 12 6 22 13 22 15 0 8 -5 6 -26 -11z"/>
<path d="M7785 4314 c-69 -39 -67 -46 3 -9 57 30 80 45 67 44 -5 0 -37 -16
-70 -35z"/>
<path d="M7630 4235 c-14 -8 -20 -14 -14 -15 5 0 19 7 30 15 24 18 16 19 -16
0z"/>
<path d="M6700 4227 c0 -5 18 -43 40 -85 48 -93 114 -172 142 -172 11 0 33 -9
48 -20 16 -11 46 -28 67 -36 62 -27 240 -54 337 -53 l91 1 -119 14 c-303 35
-473 127 -580 314 -14 25 -26 41 -26 37z"/>
<path d="M7310 4165 c1 -17 29 -49 37 -41 4 3 -3 16 -15 29 -12 12 -22 17 -22
12z"/>
<path d="M7170 4124 c0 -12 57 -94 65 -94 7 0 -34 72 -51 90 -8 8 -14 9 -14 4z"/>
<path d="M6655 3940 l-30 -8 30 -1 c17 0 37 4 45 9 13 9 13 10 0 9 -8 -1 -28
-5 -45 -9z"/>
<path d="M6568 3923 c6 -2 18 -2 25 0 6 3 1 5 -13 5 -14 0 -19 -2 -12 -5z"/>
<path d="M5993 3913 c15 -2 39 -2 55 0 15 2 2 4 -28 4 -30 0 -43 -2 -27 -4z"/>
<path d="M6270 3910 l-125 -6 135 -1 c74 -1 162 2 195 7 l60 7 -70 0 c-38 -1
-126 -4 -195 -7z"/>
<path d="M6330 3548 c-41 -39 -68 -67 -59 -62 27 15 154 134 144 134 -6 -1
-44 -33 -85 -72z"/>
<path d="M9988 3363 c18 -2 45 -2 60 0 15 2 0 4 -33 4 -33 0 -45 -2 -27 -4z"/>
<path d="M3984 3346 c-10 -8 -17 -17 -14 -19 3 -3 16 3 29 14 27 22 15 26 -15
5z"/>
<path d="M9908 3353 c6 -2 18 -2 25 0 6 3 1 5 -13 5 -14 0 -19 -2 -12 -5z"/>
<path d="M2236 3328 c-9 -12 -16 -34 -16 -48 1 -21 3 -18 15 14 7 21 20 43 27
47 9 6 9 9 1 9 -6 0 -19 -10 -27 -22z"/>
<path d="M8870 3331 c-5 -11 -10 -32 -9 -48 1 -28 1 -28 9 4 4 18 13 40 20 48
8 10 9 15 2 15 -6 0 -16 -9 -22 -19z"/>
<path d="M9860 3340 c-8 -5 -10 -10 -5 -10 6 0 17 5 25 10 8 5 11 10 5 10 -5
0 -17 -5 -25 -10z"/>
<path d="M4917 3333 c-13 -12 -7 -26 6 -15 6 5 23 12 37 15 22 4 21 4 -6 6
-17 0 -34 -2 -37 -6z"/>
<path d="M5065 3330 c11 -5 27 -9 35 -9 9 0 8 4 -5 9 -11 5 -27 9 -35 9 -9 0
-8 -4 5 -9z"/>
<path d="M7437 3333 c-4 -3 -7 -16 -6 -27 0 -21 1 -21 8 -1 5 12 21 22 42 26
l34 6 -36 2 c-20 0 -39 -2 -42 -6z"/>
<path d="M6160 3322 c0 -4 21 -6 48 -4 82 5 89 9 20 11 -38 0 -68 -2 -68 -7z"/>
<path d="M6403 3323 c15 -2 37 -2 50 0 12 2 0 4 -28 4 -27 0 -38 -2 -22 -4z"/>
<path d="M6480 3316 c0 -2 7 -7 16 -10 8 -3 12 -2 9 4 -6 10 -25 14 -25 6z"/>
<path d="M9780 3287 c-14 -12 -32 -31 -40 -42 -8 -11 5 -2 28 20 38 35 47 46
40 45 -2 -1 -14 -11 -28 -23z"/>
<path d="M10210 3285 c13 -14 26 -25 28 -25 3 0 -5 11 -18 25 -13 14 -26 25
-28 25 -3 0 5 -11 18 -25z"/>
<path d="M3951 3264 c0 -11 3 -14 6 -6 3 7 2 16 -1 19 -3 4 -6 -2 -5 -13z"/>
<path d="M3070 3190 c0 -19 3 -21 12 -12 9 9 9 15 0 24 -9 9 -12 7 -12 -12z"/>
<path d="M3776 3131 c-49 -108 -45 -117 5 -13 22 46 39 86 36 88 -2 2 -20 -32
-41 -75z"/>
<path d="M6163 2995 c0 -38 2 -53 4 -32 2 20 2 52 0 70 -2 17 -4 1 -4 -38z"/>
<path d="M5345 2981 c-9 -28 -81 -90 -130 -112 -23 -10 -67 -23 -96 -29 l-54
-9 52 4 c75 6 145 40 198 96 25 26 45 53 45 59 0 16 -8 12 -15 -9z"/>
<path d="M7834 2958 l-29 -33 33 29 c17 17 32 31 32 33 0 8 -8 1 -36 -29z"/>
<path d="M7748 2907 c-27 -11 -48 -24 -48 -29 0 -5 23 3 50 17 28 14 50 28 50
30 0 3 -1 5 -2 4 -2 -1 -24 -10 -50 -22z"/>
<path d="M6167 2883 c-4 -3 -7 -11 -7 -17 0 -6 5 -5 12 2 6 6 9 14 7 17 -3 3
-9 2 -12 -2z"/>
<path d="M6228 2883 c7 -3 16 -2 19 1 4 3 -2 6 -13 5 -11 0 -14 -3 -6 -6z"/>
<path d="M7432 2803 l2 -58 3 52 4 52 62 4 62 3 -67 2 -68 2 2 -57z"/>
<path d="M6163 2810 c0 -25 2 -35 4 -22 2 12 2 32 0 45 -2 12 -4 2 -4 -23z"/>
<path d="M4910 2832 c0 -5 21 -9 48 -9 41 -1 43 0 17 7 -42 11 -65 11 -65 2z"/>
<path d="M3551 2629 c-45 -100 -81 -183 -79 -185 2 -2 41 78 86 178 45 100 80
183 78 185 -2 2 -40 -78 -85 -178z"/>
<path d="M3031 2704 c0 -11 3 -14 6 -6 3 7 2 16 -1 19 -3 4 -6 -2 -5 -13z"/>
<path d="M8862 2655 c0 -16 2 -22 5 -12 2 9 2 23 0 30 -3 6 -5 -1 -5 -18z"/>
<path d="M4903 2610 c0 -36 2 -50 4 -32 2 17 2 47 0 65 -2 17 -4 3 -4 -33z"/>
<path d="M2920 2410 c-37 -6 -29 -7 44 -8 49 -1 87 0 85 2 -10 8 -88 12 -129
6z"/>
<path d="M2098 2403 c34 -2 88 -2 120 0 31 2 3 3 -63 3 -66 0 -92 -1 -57 -3z"/>
<path d="M3898 2403 c29 -2 74 -2 100 0 26 2 2 3 -53 3 -55 0 -76 -1 -47 -3z"/>
<path d="M4788 2403 c29 -2 74 -2 100 0 26 2 2 3 -53 3 -55 0 -76 -1 -47 -3z"/>
<path d="M6183 2403 c48 -2 125 -2 170 0 45 1 6 3 -88 3 -93 0 -130 -2 -82 -3z"/>
<path d="M7308 2403 c34 -2 90 -2 125 0 34 2 6 3 -63 3 -69 0 -97 -1 -62 -3z"/>
<path d="M7977 2403 c18 -2 50 -2 70 0 21 2 7 4 -32 4 -38 0 -55 -2 -38 -4z"/>
<path d="M8743 2403 c31 -2 83 -2 115 0 31 2 5 3 -58 3 -63 0 -89 -1 -57 -3z"/>
<path d="M7935 1960 l-60 -7 57 -1 c31 -1 60 3 63 8 3 6 5 9 3 8 -2 -1 -30 -4
-63 -8z"/>
<path d="M8726 1953 c-6 -14 -5 -15 5 -6 7 7 10 15 7 18 -3 3 -9 -2 -12 -12z"/>
<path d="M5317 1953 c-3 -5 16 -7 41 -5 73 5 82 10 20 11 -31 0 -59 -2 -61 -6z"/>
<path d="M6135 1929 c-19 -17 -35 -36 -35 -41 0 -6 10 2 22 17 12 15 35 33 52
41 18 8 24 13 14 14 -10 0 -33 -14 -53 -31z"/>
<path d="M6980 1953 c0 -5 24 -7 52 -5 89 5 97 9 21 11 -40 0 -73 -2 -73 -6z"/>
<path d="M7748 1953 c12 -2 32 -2 45 0 12 2 2 4 -23 4 -25 0 -35 -2 -22 -4z"/>
<path d="M8549 1943 c-13 -15 -12 -15 11 -3 34 17 36 20 18 20 -9 0 -22 -7
-29 -17z"/>
<path d="M4400 1885 c0 -8 5 -15 10 -15 6 0 10 7 10 15 0 8 -4 15 -10 15 -5 0
-10 -7 -10 -15z"/>
<path d="M4666 1872 c-10 -19 -15 -36 -12 -40 3 -3 6 0 6 6 0 6 7 18 16 26 8
9 14 22 11 29 -2 6 -12 -3 -21 -21z"/>
<path d="M5545 1838 c-6 -19 -24 -42 -44 -55 -19 -13 -28 -23 -21 -23 20 0 80
66 80 89 0 29 -4 26 -15 -11z"/>
<path d="M7175 1785 c-16 -14 -25 -25 -19 -25 6 0 21 11 34 25 30 32 24 31
-15 0z"/>
<path d="M8608 1793 c7 -3 16 -2 19 1 4 3 -2 6 -13 5 -11 0 -14 -3 -6 -6z"/>
<path d="M2033 1783 c15 -2 37 -2 50 0 12 2 0 4 -28 4 -27 0 -38 -2 -22 -4z"/>
<path d="M3108 1783 c12 -2 32 -2 45 0 12 2 2 4 -23 4 -25 0 -35 -2 -22 -4z"/>
<path d="M10223 1783 c15 -2 39 -2 55 0 15 2 2 4 -28 4 -30 0 -43 -2 -27 -4z"/>
<path d="M10448 1783 c7 -3 16 -2 19 1 4 3 -2 6 -13 5 -11 0 -14 -3 -6 -6z"/>
<path d="M10488 1783 c6 -2 18 -2 25 0 6 3 1 5 -13 5 -14 0 -19 -2 -12 -5z"/>
<path d="M5317 1753 c-13 -12 -7 -26 6 -15 7 6 40 13 72 15 l60 3 -66 2 c-36
1 -69 -1 -72 -5z"/>
<path d="M6980 1752 c0 -4 19 -6 43 -4 70 5 76 10 15 11 -32 0 -58 -2 -58 -7z"/>
<path d="M6400 1742 c0 -6 -14 -28 -32 -49 -29 -34 -29 -35 -4 -13 31 28 50
59 42 68 -3 3 -6 0 -6 -6z"/>
<path d="M8730 1680 c-6 -11 -8 -20 -6 -20 3 0 10 9 16 20 6 11 8 20 6 20 -3
0 -10 -9 -16 -20z"/>
<path d="M5310 1652 c0 -7 -10 -13 -22 -13 -19 -1 -20 -2 -4 -6 20 -5 44 12
33 24 -4 3 -7 1 -7 -5z"/>
<path d="M6307 1654 c-3 -4 -21 -10 -39 -15 -32 -8 -32 -9 6 -4 35 4 77 25 50
25 -6 0 -13 -3 -17 -6z"/>
<path d="M6948 1633 c7 -3 16 -2 19 1 4 3 -2 6 -13 5 -11 0 -14 -3 -6 -6z"/>
<path d="M7193 1633 c9 -2 23 -2 30 0 6 3 -1 5 -18 5 -16 0 -22 -2 -12 -5z"/>
</g>
</svg>
